{"title":"Truth in 24 II","uid":8177004,"size":1751955729,"categoryP":"video","categoryS":"hd___movies","magnet":"?xt=urn:btih:626c891ee45ed9b64e45f9699f3a328784befaf2&amp;dn=Truth+in+24+II&amp;tr=udp%3A%2F%2Ftracker.openbittorrent.com%3A80&amp;tr=udp%3A%2F%2Fopen.demonii.com%3A1337&amp;tr=udp%3A%2F%2Ftracker.coppersurfer.tk%3A6969&amp;tr=udp%3A%2F%2Fexodus.desync.com%3A6969","seeders":0,"leechers":4,"uploader":"psozero","files":1,"time":1361549243,"description":"                                  \nComplete name                            : TRUTH IN 24 II -\n                                           Every Second Counts (2012)\n\nFormat                                   : WebM\nFormat version                           : Version 2\nFile size                                : 1.63 GiB\nDuration                                 : 1h 22mn\nOverall bit rate mode                    : Variable\nOverall bit rate                         : 2 817 Kbps\nWriting application                      : google\nWriting library                          : google\n\nVideo\nID                                       : 1\nFormat                                   : VP8\nCodec ID                                 : V_VP8\nDuration                                 : 1h 22mn\nBit rate                                 : 2 505 Kbps\nWidth                                    : 1 280 pixels\nHeight                                   : 720 pixels\nDisplay aspect ratio                     : 16:9\nFrame rate mode                          : Constant\nFrame rate                               : 30.000 fps\nCompression mode                         : Lossy\nBits/(Pixel*Frame)                       : 0.091\nStream size                              : 1.45 GiB (89%)\nLanguage                                 : English\nDefault                                  : Yes\nForced                                   : No\n\nAudio\nID                                       : 2\nFormat                                   : Vorbis\nFormat settings, Floor                   : 1\nCodec ID                                 : A_VORBIS\nDuration                                 : 1h 22mn\nBit rate mode                            : Variable\nBit rate                                 : 192 Kbps\nChannel(s)                               : 2 channels\nSampling rate                            : 44.1 KHz\nCompression mode                         : Lossy\nStream size                              : 114 MiB (7%)\nDefault                                  : Yes\nForced                                   : No\n\n","torrent":{"xt":"urn:btih:626c891ee45ed9b64e45f9699f3a328784befaf2","amp;dn":"Truth+in+24+II","amp;tr":["udp%3A%2F%2Ftracker.openbittorrent.com%3A80","udp%3A%2F%2Fopen.demonii.com%3A1337","udp%3A%2F%2Ftracker.coppersurfer.tk%3A6969","udp%3A%2F%2Fexodus.desync.com%3A6969"],"infoHash":"626c891ee45ed9b64e45f9699f3a328784befaf2","infoHashBuffer":{"type":"Buffer","data":[98,108,137,30,228,94,217,182,78,69,249,105,159,58,50,135,132,190,250,242]},"announce":[],"urlList":[]}}